<svg xmlns="http://www.w3.org/2000/svg" xmlns:xlink="http://www.w3.org/1999/xlink" viewBox="0 0 185.99 85.97"><defs><style>.cls-1,.cls-7{fill:#fff;}.cls-2{fill:#e3e3e3;}.cls-3{mask:url(#mask);}.cls-4,.cls-6{fill:#e4e4e4;}.cls-4,.cls-7{fill-rule:evenodd;}.cls-5{mask:url(#mask-2);}.cls-8{mask:url(#mask-3);}.cls-9{fill:#f1f1f1;}.cls-10{mask:url(#mask-4);}</style><mask id="mask" x="67.07" y="13.16" width="51.05" height="12.57" maskUnits="userSpaceOnUse"><g id="mask0"><rect class="cls-1" x="67.07" y="13.16" width="51.05" height="12.57" rx="1.31"/></g></mask><mask id="mask-2" x="67.07" y="28.66" width="51.05" height="22.81" maskUnits="userSpaceOnUse"><g id="mask1"><rect class="cls-1" x="67.07" y="28.66" width="51.05" height="22.81" rx="1.31"/></g></mask><mask id="mask-3" x="130.59" y="12.32" width="55.4" height="36.52" maskUnits="userSpaceOnUse"><g id="mask2"><rect class="cls-1" x="130.59" y="13.45" width="51.05" height="35.38" rx="1.31"/></g></mask><mask id="mask-4" x="3.49" y="44.18" width="55.4" height="36.52" maskUnits="userSpaceOnUse"><g id="mask5"><rect class="cls-1" x="3.49" y="45.31" width="51.05" height="35.38" rx="1.31"/></g></mask></defs><g id="Layer_2" data-name="Layer 2"><g id="Layer_1-2" data-name="Layer 1"><rect class="cls-2" x="63.51" width="57.87" height="54.86" rx="1.31"/><rect class="cls-1" x="67.07" y="13.16" width="51.05" height="12.57" rx="1.31"/><g class="cls-3"><path class="cls-4" d="M69.74,18.2a.66.66,0,0,1,.66-.65h9.07a.65.65,0,0,1,.66.65v2.49a.66.66,0,0,1-.66.66H70.4a.67.67,0,0,1-.66-.66Z"/></g><rect class="cls-1" x="67.07" y="28.66" width="51.05" height="22.81" rx="1.31"/><g class="cls-5"><rect class="cls-6" x="69.74" y="33.04" width="38.58" height="3.8" rx="0.66"/><rect class="cls-6" x="69.74" y="39.77" width="14.25" height="3.8" rx="0.66"/></g><path class="cls-7" d="M67.37,5.63A.66.66,0,0,1,68,5H89.86a.67.67,0,0,1,.66.66V8.7a.67.67,0,0,1-.66.66H68a.66.66,0,0,1-.66-.66Z"/><rect class="cls-2" x="127.02" width="57.87" height="84.22" rx="1.31"/><rect class="cls-1" x="130.59" y="13.45" width="51.05" height="35.38" rx="1.31"/><g class="cls-8"><rect class="cls-9" x="130.6" y="12.32" width="55.39" height="27.06"/><path class="cls-4" d="M133.26,42.77a.65.65,0,0,1,.65-.66h10.86a.65.65,0,0,1,.65.66v2.48a.65.65,0,0,1-.65.66H133.91a.65.65,0,0,1-.65-.66Z"/></g><rect class="cls-1" x="130.29" y="52.64" width="51.05" height="11.4" rx="1.31"/><rect class="cls-6" x="132.96" y="56.44" width="19.29" height="3.8" rx="0.66"/><rect class="cls-1" x="130.29" y="67.55" width="51.05" height="11.4" rx="1.31"/><rect class="cls-6" x="132.96" y="71.35" width="13.36" height="3.8" rx="0.66"/><path class="cls-7" d="M130.88,5.63a.67.67,0,0,1,.66-.66h13.82a.67.67,0,0,1,.66.66V8.7a.67.67,0,0,1-.66.66H131.54a.67.67,0,0,1-.66-.66Z"/><rect class="cls-2" width="57.87" height="85.97" rx="1.31"/><rect class="cls-1" x="3.56" y="13.45" width="51.05" height="12.28" rx="1.31"/><rect class="cls-6" x="6.23" y="17.55" width="25.82" height="3.8" rx="0.66"/><rect class="cls-1" x="3.56" y="29.53" width="51.05" height="12.28" rx="1.31"/><rect class="cls-6" x="6.23" y="33.63" width="19.59" height="3.8" rx="0.66"/><rect class="cls-6" x="5.94" y="73.4" width="13.36" height="3.8" rx="0.66"/><rect class="cls-1" x="3.49" y="45.31" width="51.05" height="35.38" rx="1.31"/><g class="cls-10"><rect class="cls-9" x="3.51" y="44.18" width="55.39" height="27.06"/><rect class="cls-6" x="6.16" y="73.97" width="12.17" height="3.8" rx="0.66"/></g><rect class="cls-1" x="3.86" y="4.97" width="14.25" height="4.39" rx="0.66"/></g></g></svg>