<svg xmlns="http://www.w3.org/2000/svg" xmlns:xlink="http://www.w3.org/1999/xlink" width="280" zoomAndPan="magnify" viewBox="0 0 210 60" height="80" preserveAspectRatio="xMidYMid meet" version="1.0"><defs><g/><clipPath id="9b005c82e0"><path d="M 0 7.820312 L 39.75 7.820312 L 39.75 52.070312 L 0 52.070312 Z M 0 7.820312 " clip-rule="nonzero"/></clipPath></defs><g fill="#7366ff" fill-opacity="1"><g transform="translate(55.487363, 42.353115)"><g><path d="M 1.890625 -25.5625 L 15.015625 -25.5625 C 17.210938 -25.5625 18.875 -25.242188 20 -24.609375 C 21.132812 -23.984375 21.890625 -23.050781 22.265625 -21.8125 C 22.648438 -20.570312 22.84375 -18.847656 22.84375 -16.640625 C 22.84375 -14.585938 22.664062 -12.941406 22.3125 -11.703125 C 21.957031 -10.460938 21.210938 -9.492188 20.078125 -8.796875 C 18.953125 -8.109375 17.265625 -7.765625 15.015625 -7.765625 L 10.59375 -7.765625 L 10.59375 0 L 1.890625 0 Z M 11.734375 -13.828125 C 12.503906 -13.828125 13.046875 -13.878906 13.359375 -13.984375 C 13.671875 -14.097656 13.875 -14.332031 13.96875 -14.6875 C 14.070312 -15.050781 14.125 -15.703125 14.125 -16.640625 C 14.125 -17.585938 14.070312 -18.25 13.96875 -18.625 C 13.875 -19.007812 13.675781 -19.25 13.375 -19.34375 C 13.082031 -19.445312 12.535156 -19.5 11.734375 -19.5 L 10.59375 -19.5 L 10.59375 -13.828125 Z M 11.734375 -13.828125 "/></g></g></g><g fill="#7366ff" fill-opacity="1"><g transform="translate(80.384802, 42.353115)"><g><path d="M 1.640625 -18.953125 L 9.328125 -18.953125 L 9.46875 -15.796875 L 9.84375 -15.796875 C 10.382812 -17.109375 11.082031 -18.007812 11.9375 -18.5 C 12.800781 -19 14 -19.25 15.53125 -19.25 L 15.53125 -12.328125 C 13.96875 -12.328125 12.769531 -12.171875 11.9375 -11.859375 C 11.113281 -11.554688 10.515625 -10.984375 10.140625 -10.140625 C 9.773438 -9.296875 9.59375 -8.035156 9.59375 -6.359375 L 9.59375 0 L 1.640625 0 Z M 1.640625 -18.953125 "/></g></g></g><g fill="#7366ff" fill-opacity="1"><g transform="translate(97.924514, 42.353115)"><g><path d="M 10.59375 0.296875 C 7.570312 0.296875 5.410156 0.0195312 4.109375 -0.53125 C 2.804688 -1.09375 1.976562 -2.003906 1.625 -3.265625 C 1.28125 -4.535156 1.109375 -6.601562 1.109375 -9.46875 C 1.109375 -12.34375 1.28125 -14.410156 1.625 -15.671875 C 1.976562 -16.941406 2.804688 -17.851562 4.109375 -18.40625 C 5.410156 -18.96875 7.570312 -19.25 10.59375 -19.25 C 13.613281 -19.25 15.78125 -18.96875 17.09375 -18.40625 C 18.40625 -17.851562 19.234375 -16.941406 19.578125 -15.671875 C 19.929688 -14.410156 20.109375 -12.34375 20.109375 -9.46875 C 20.109375 -6.601562 19.929688 -4.535156 19.578125 -3.265625 C 19.234375 -2.003906 18.40625 -1.09375 17.09375 -0.53125 C 15.78125 0.0195312 13.613281 0.296875 10.59375 0.296875 Z M 10.59375 -5.28125 C 11.15625 -5.28125 11.535156 -5.351562 11.734375 -5.5 C 11.929688 -5.644531 12.054688 -5.976562 12.109375 -6.5 C 12.160156 -7.019531 12.1875 -8.007812 12.1875 -9.46875 C 12.1875 -10.9375 12.160156 -11.929688 12.109375 -12.453125 C 12.054688 -12.972656 11.929688 -13.304688 11.734375 -13.453125 C 11.535156 -13.597656 11.15625 -13.671875 10.59375 -13.671875 C 10.019531 -13.671875 9.640625 -13.597656 9.453125 -13.453125 C 9.265625 -13.304688 9.144531 -12.984375 9.09375 -12.484375 C 9.050781 -11.984375 9.03125 -10.976562 9.03125 -9.46875 C 9.03125 -7.957031 9.050781 -6.953125 9.09375 -6.453125 C 9.144531 -5.960938 9.265625 -5.644531 9.453125 -5.5 C 9.640625 -5.351562 10.019531 -5.28125 10.59375 -5.28125 Z M 10.59375 -5.28125 "/></g></g></g><g fill="#4c5270" fill-opacity="1"><g transform="translate(120.409235, 42.353115)"><g><path d="M 6.71875 0 L 6.71875 -19.03125 L 0.484375 -19.03125 L 0.484375 -25.5625 L 21.703125 -25.5625 L 21.703125 -19.03125 L 15.421875 -19.03125 L 15.421875 0 Z M 6.71875 0 "/></g></g></g><g fill="#4c5270" fill-opacity="1"><g transform="translate(143.857418, 42.353115)"><g><path d="M 6.171875 0.296875 C 4.429688 0.296875 3.140625 -0.164062 2.296875 -1.09375 C 1.460938 -2.019531 1.046875 -3.5 1.046875 -5.53125 C 1.046875 -7.019531 1.210938 -8.160156 1.546875 -8.953125 C 1.878906 -9.742188 2.476562 -10.316406 3.34375 -10.671875 C 4.207031 -11.035156 5.484375 -11.21875 7.171875 -11.21875 C 8.210938 -11.21875 9.648438 -11.171875 11.484375 -11.078125 L 11.484375 -11.703125 C 11.484375 -12.398438 11.398438 -12.867188 11.234375 -13.109375 C 11.078125 -13.359375 10.753906 -13.515625 10.265625 -13.578125 C 9.785156 -13.640625 8.878906 -13.671875 7.546875 -13.671875 C 6.109375 -13.671875 4.273438 -13.597656 2.046875 -13.453125 L 2.046875 -18.578125 C 4.523438 -19.023438 7.175781 -19.25 10 -19.25 C 12.875 -19.25 14.984375 -18.957031 16.328125 -18.375 C 17.679688 -17.789062 18.535156 -16.96875 18.890625 -15.90625 C 19.253906 -14.84375 19.4375 -13.28125 19.4375 -11.21875 L 19.4375 0 L 11.671875 0 L 11.515625 -2.078125 L 11.140625 -2.078125 C 10.421875 -1.085938 9.691406 -0.441406 8.953125 -0.140625 C 8.210938 0.148438 7.285156 0.296875 6.171875 0.296875 Z M 9.921875 -4.796875 C 10.335938 -4.796875 10.648438 -4.847656 10.859375 -4.953125 C 11.078125 -5.066406 11.234375 -5.25 11.328125 -5.5 C 11.429688 -5.71875 11.484375 -6.210938 11.484375 -6.984375 L 11.484375 -7.984375 L 10 -7.984375 C 9.476562 -7.984375 9.109375 -7.945312 8.890625 -7.875 C 8.679688 -7.800781 8.539062 -7.644531 8.46875 -7.40625 C 8.394531 -7.175781 8.359375 -6.789062 8.359375 -6.25 C 8.359375 -5.820312 8.382812 -5.515625 8.4375 -5.328125 C 8.488281 -5.140625 8.625 -5.003906 8.84375 -4.921875 C 9.0625 -4.835938 9.421875 -4.796875 9.921875 -4.796875 Z M 9.921875 -4.796875 "/></g></g></g><g fill="#4c5270" fill-opacity="1"><g transform="translate(166.190799, 42.353115)"><g><path d="M 9.8125 0.296875 C 8.5 0.296875 7.070312 0.242188 5.53125 0.140625 C 4 0.046875 2.675781 -0.0703125 1.5625 -0.21875 L 1.5625 -5.28125 C 3.738281 -5.101562 5.457031 -5.015625 6.71875 -5.015625 C 8.03125 -5.015625 8.914062 -5.03125 9.375 -5.0625 C 9.832031 -5.101562 10.117188 -5.171875 10.234375 -5.265625 C 10.347656 -5.367188 10.40625 -5.582031 10.40625 -5.90625 C 10.40625 -6.082031 10.375 -6.207031 10.3125 -6.28125 C 10.25 -6.351562 10.09375 -6.421875 9.84375 -6.484375 C 9.59375 -6.546875 9.171875 -6.613281 8.578125 -6.6875 L 4.15625 -7.25 C 2.875 -7.414062 2.019531 -7.988281 1.59375 -8.96875 C 1.175781 -9.945312 0.96875 -11.425781 0.96875 -13.40625 C 0.96875 -15.09375 1.316406 -16.363281 2.015625 -17.21875 C 2.722656 -18.070312 3.660156 -18.625 4.828125 -18.875 C 5.992188 -19.125 7.484375 -19.25 9.296875 -19.25 C 10.609375 -19.25 11.960938 -19.195312 13.359375 -19.09375 C 14.753906 -19 15.847656 -18.878906 16.640625 -18.734375 L 16.640625 -13.671875 C 14.210938 -13.847656 12.554688 -13.9375 11.671875 -13.9375 C 10.503906 -13.9375 9.703125 -13.921875 9.265625 -13.890625 C 8.835938 -13.867188 8.5625 -13.8125 8.4375 -13.71875 C 8.3125 -13.632812 8.25 -13.472656 8.25 -13.234375 C 8.25 -13.003906 8.269531 -12.851562 8.3125 -12.78125 C 8.363281 -12.707031 8.492188 -12.644531 8.703125 -12.59375 C 8.921875 -12.539062 9.300781 -12.476562 9.84375 -12.40625 L 13.59375 -11.921875 C 14.507812 -11.796875 15.253906 -11.578125 15.828125 -11.265625 C 16.398438 -10.960938 16.851562 -10.398438 17.1875 -9.578125 C 17.519531 -8.765625 17.6875 -7.59375 17.6875 -6.0625 C 17.6875 -4.175781 17.351562 -2.769531 16.6875 -1.84375 C 16.019531 -0.914062 15.144531 -0.328125 14.0625 -0.078125 C 12.988281 0.171875 11.570312 0.296875 9.8125 0.296875 Z M 9.8125 0.296875 "/></g></g></g><g fill="#4c5270" fill-opacity="1"><g transform="translate(186.108768, 42.353115)"><g><path d="M 13.640625 0 L 9.921875 -6.578125 L 9.59375 -6.578125 L 9.59375 0 L 1.640625 0 L 1.640625 -27.609375 L 9.59375 -27.609375 L 9.59375 -12.15625 L 9.921875 -12.15625 L 13.890625 -18.953125 L 22.21875 -18.953125 L 16.53125 -10 L 22.328125 0 Z M 13.640625 0 "/></g></g></g><g clip-path="url(#9b005c82e0)"><path fill="#7366ff" d="M 19.984375 7.820312 C 17.09375 7.820312 14.65625 9.675781 13.738281 12.253906 L 4.460938 12.253906 C 2.011719 12.253906 0.0273438 14.238281 0.0273438 16.691406 L 0.0273438 47.738281 C 0.0273438 50.191406 2.011719 52.175781 4.460938 52.175781 L 35.511719 52.175781 C 37.960938 52.175781 39.945312 50.191406 39.945312 47.738281 L 39.945312 16.691406 C 39.945312 14.238281 37.960938 12.253906 35.511719 12.253906 L 26.234375 12.253906 C 25.316406 9.675781 22.878906 7.820312 19.984375 7.820312 Z M 19.984375 12.253906 C 21.210938 12.253906 22.203125 13.25 22.203125 14.472656 C 22.203125 15.695312 21.210938 16.691406 19.984375 16.691406 L 35.511719 16.691406 L 35.511719 47.738281 L 4.460938 47.738281 L 4.460938 16.691406 L 19.984375 16.691406 C 18.761719 16.691406 17.769531 15.695312 17.769531 14.472656 C 17.769531 13.25 18.761719 12.253906 19.984375 12.253906 Z M 27.289062 23.992188 L 17.769531 33.515625 L 12.683594 28.429688 L 9.546875 31.566406 L 17.769531 39.785156 L 30.425781 27.128906 Z M 27.289062 23.992188 " fill-opacity="1" fill-rule="nonzero"/></g></svg>