<svg xmlns="http://www.w3.org/2000/svg" xmlns:xlink="http://www.w3.org/1999/xlink" width="80" zoomAndPan="magnify" viewBox="0 0 60 60" height="80" preserveAspectRatio="xMidYMid meet" version="1.0"><defs><clipPath id="d646b6f6c5"><path d="M 4.929688 2.183594 L 55.179688 2.183594 L 55.179688 57.683594 L 4.929688 57.683594 Z M 4.929688 2.183594 " clip-rule="nonzero"/></clipPath></defs><g clip-path="url(#d646b6f6c5)"><path fill="#7366ff" d="M 29.996094 2.183594 C 26.367188 2.183594 23.308594 4.511719 22.160156 7.746094 L 10.523438 7.746094 C 7.453125 7.746094 4.960938 10.234375 4.960938 13.308594 L 4.960938 52.246094 C 4.960938 55.320312 7.453125 57.8125 10.523438 57.8125 L 49.464844 57.8125 C 52.539062 57.8125 55.027344 55.320312 55.027344 52.246094 L 55.027344 13.308594 C 55.027344 10.234375 52.539062 7.746094 49.464844 7.746094 L 37.828125 7.746094 C 36.679688 4.511719 33.621094 2.183594 29.996094 2.183594 Z M 29.996094 7.746094 C 31.53125 7.746094 32.777344 8.992188 32.777344 10.527344 C 32.777344 12.0625 31.53125 13.308594 29.996094 13.308594 L 49.464844 13.308594 L 49.464844 52.246094 L 10.523438 52.246094 L 10.523438 13.308594 L 29.996094 13.308594 C 28.460938 13.308594 27.214844 12.0625 27.214844 10.527344 C 27.214844 8.992188 28.460938 7.746094 29.996094 7.746094 Z M 39.15625 22.46875 L 27.214844 34.40625 L 20.835938 28.03125 L 16.902344 31.964844 L 27.214844 42.273438 L 43.085938 26.398438 Z M 39.15625 22.46875 " fill-opacity="1" fill-rule="nonzero"/></g></svg>